<svg width="615" height="597" viewBox="0 0 615 597" fill="none" xmlns="http://www.w3.org/2000/svg">
<g clip-path="url(#clip0_310_30)">
<path d="M604.331 200.71C636.54 307.723 596.523 438.111 502.334 518.111C407.658 598.11 258.811 628.759 149.494 554.994C39.6894 481.228 -30.0977 303.047 12.3602 180.97C54.8181 58.8933 209.521 -7.59979 338.847 0.711837C468.173 9.54294 572.122 93.6982 604.331 200.71Z" fill="#3A304A"/>
</g>
<g clip-path="url(#clip1_310_30)">
<path d="M141.395 187.691L122.181 178.334L125.457 161.306L132.304 162.665L130.059 174.314L144.421 181.307L141.395 187.691Z" fill="#F9B117"/>
<path d="M141.395 187.691L122.181 178.334L125.457 161.306L132.304 162.665L130.059 174.314L144.421 181.307L141.395 187.691Z" stroke="#141414" stroke-width="2" stroke-miterlimit="10"/>
<path d="M128.888 165.566C133.685 165.566 137.575 161.618 137.575 156.748C137.575 151.878 133.685 147.929 128.888 147.929C124.09 147.929 120.201 151.878 120.201 156.748C120.201 161.618 124.09 165.566 128.888 165.566Z" fill="#0E394F"/>
<path d="M128.888 165.566C133.685 165.566 137.575 161.618 137.575 156.748C137.575 151.878 133.685 147.929 128.888 147.929C124.09 147.929 120.201 151.878 120.201 156.748C120.201 161.618 124.09 165.566 128.888 165.566Z" stroke="#141414" stroke-width="2" stroke-miterlimit="10"/>
<path d="M118.402 205.455C119.585 200.113 122.134 195.182 125.793 191.159C129.453 187.137 134.092 184.165 139.243 182.542C144.395 180.92 149.877 180.706 155.136 181.92C160.395 183.135 165.246 185.735 169.2 189.46L185.249 204.606L240.356 256.328L168.67 278.976L96.9978 301.624L113.577 227.112L118.402 205.455Z" fill="#FACA3F"/>
<path d="M187.438 206.432L116.464 228.797L117.551 223.913C124.997 222.54 132.17 219.939 138.788 216.213C150.635 209.792 160.256 199.837 166.355 187.691C168.364 188.891 170.235 190.315 171.933 191.937L187.438 206.432Z" fill="#F99F00"/>
<path d="M125.91 333.551L149.311 326.184L163.089 371.286C164.053 374.441 163.743 377.856 162.227 380.779C160.71 383.702 158.112 385.894 155.004 386.873C151.896 387.852 148.532 387.537 145.652 385.997C142.772 384.458 140.613 381.821 139.649 378.665L125.87 333.563L125.91 333.551Z" fill="#FBD766"/>
<path d="M211.158 305.499L234.598 298.12L248.377 343.221C249.341 346.377 249.03 349.792 247.514 352.715C245.998 355.638 243.4 357.83 240.291 358.808C237.183 359.787 233.819 359.472 230.94 357.933C228.06 356.394 225.901 353.756 224.937 350.601L211.158 305.499Z" fill="#FBD766"/>
<path d="M125.91 333.551L149.311 326.184L163.089 371.286C164.053 374.441 163.743 377.856 162.227 380.779C160.71 383.702 158.112 385.894 155.004 386.873C151.896 387.852 148.532 387.537 145.652 385.997C142.772 384.458 140.613 381.821 139.649 378.665L125.87 333.563L125.91 333.551Z" stroke="#141414" stroke-width="2" stroke-miterlimit="10"/>
<path d="M211.158 305.499L234.598 298.12L248.377 343.221C249.341 346.377 249.03 349.792 247.514 352.715C245.998 355.638 243.4 357.83 240.291 358.808C237.183 359.787 233.819 359.472 230.94 357.933C228.06 356.394 225.901 353.756 224.937 350.601L211.158 305.499V305.499Z" stroke="#141414" stroke-width="2" stroke-miterlimit="10"/>
<path opacity="0.7" d="M134.674 344.556L139.29 359.673" stroke="white" stroke-width="2.8" stroke-linecap="round" stroke-linejoin="round"/>
<path d="M133.042 313.711L217.533 287.112L234.467 342.543C235.443 345.739 235.79 349.098 235.487 352.43C235.185 355.762 234.238 359.001 232.703 361.961C231.167 364.922 229.072 367.546 226.537 369.685C224.002 371.824 221.077 373.434 217.929 374.425L181.304 385.956C174.946 387.957 168.065 387.313 162.175 384.165C156.285 381.016 151.868 375.621 149.896 369.167L132.962 313.736L133.042 313.711Z" fill="#FACA3F"/>
<path d="M224.947 311.471L140.456 338.07L143.67 348.589L228.16 321.989L224.947 311.471Z" fill="#F7B000"/>
<path d="M133.042 313.711L217.533 287.112L234.467 342.543C235.443 345.739 235.79 349.098 235.487 352.43C235.185 355.762 234.238 359.001 232.703 361.961C231.167 364.922 229.072 367.546 226.537 369.685C224.002 371.824 221.077 373.434 217.929 374.425L181.304 385.956C174.946 387.957 168.065 387.313 162.175 384.165C156.285 381.016 151.868 375.621 149.896 369.167L132.962 313.736L133.042 313.711Z" stroke="#141414" stroke-width="2" stroke-miterlimit="10"/>
<path d="M118.402 205.455C119.585 200.113 122.134 195.182 125.793 191.159C129.453 187.137 134.092 184.165 139.243 182.542C144.395 180.92 149.877 180.706 155.136 181.92C160.395 183.135 165.246 185.735 169.2 189.46L185.249 204.606L238.961 256.328L168.67 278.976L98.3922 301.624L113.577 227.112L118.402 205.455Z" stroke="#141414" stroke-width="2" stroke-miterlimit="10"/>
<path d="M204.474 197.87L95.9121 232.309C86.2569 235.372 80.8757 245.8 83.893 255.602L106.867 330.231C109.884 340.032 120.157 345.495 129.813 342.432L238.375 307.993C248.03 304.93 253.411 294.502 250.394 284.7L227.42 210.071C224.403 200.269 214.129 194.807 204.474 197.87Z" fill="#F9B117"/>
<path opacity="0.5" d="M246.979 278.962L248.708 284.624C250.138 289.305 249.678 294.371 247.429 298.709C245.181 303.046 241.327 306.299 236.716 307.753L128.706 341.725C124.093 343.177 119.1 342.71 114.825 340.428C110.551 338.145 107.343 334.233 105.908 329.552L104.179 323.89C105.611 328.57 108.816 332.482 113.088 334.765C117.361 337.047 122.352 337.514 126.963 336.063L234.987 302.091C237.277 301.381 239.405 300.217 241.249 298.668C243.093 297.118 244.616 295.213 245.731 293.063C246.846 290.913 247.53 288.559 247.745 286.139C247.959 283.719 247.699 281.279 246.979 278.962Z" fill="#E59303"/>
<path d="M204.785 208.138L101.416 240.929C95.6203 242.768 92.3899 249.028 94.2012 254.912L115.72 324.812C117.531 330.696 123.698 333.976 129.494 332.137L232.862 299.345C238.658 297.507 241.889 291.246 240.077 285.363L218.559 215.462C216.748 209.578 210.581 206.299 204.785 208.138Z" fill="#0E394F"/>
<path d="M235.406 275.381L238.459 285.289C238.884 286.681 239.035 288.145 238.903 289.596C238.77 291.048 238.358 292.458 237.688 293.748C237.019 295.037 236.106 296.18 235.001 297.112C233.896 298.043 232.622 298.744 231.25 299.175L128.414 331.547C125.642 332.419 122.642 332.138 120.075 330.766C117.507 329.394 115.581 327.042 114.721 324.229L111.681 314.321C112.541 317.13 114.466 319.478 117.031 320.848C119.596 322.217 122.592 322.497 125.36 321.625L228.21 289.238C230.974 288.368 233.284 286.419 234.633 283.821C235.982 281.222 236.26 278.187 235.406 275.381Z" fill="#062538"/>
<path d="M151.717 263.482C151.017 261.189 148.619 259.907 146.361 260.618C144.102 261.329 142.84 263.764 143.54 266.056L148.781 283.213C149.482 285.505 151.88 286.787 154.138 286.076C156.396 285.365 157.659 282.93 156.959 280.638L151.717 263.482Z" fill="#4CF58C"/>
<path d="M182.249 253.871C181.549 251.579 179.151 250.297 176.893 251.008C174.635 251.719 173.372 254.154 174.072 256.446L179.313 273.602C180.014 275.895 182.412 277.177 184.67 276.466C186.928 275.755 188.191 273.32 187.491 271.028L182.249 253.871Z" fill="#4CF58C"/>
<path d="M119.657 251.294C121.555 250.696 122.616 248.65 122.027 246.724C121.438 244.798 119.422 243.721 117.525 244.318L103.794 248.644C101.897 249.241 100.836 251.288 101.425 253.214C102.014 255.14 104.029 256.217 105.927 255.619L119.657 251.294Z" fill="#185472"/>
<path d="M127.953 248.5C129.848 248.5 131.384 246.941 131.384 245.018C131.384 243.095 129.848 241.536 127.953 241.536C126.059 241.536 124.523 243.095 124.523 245.018C124.523 246.941 126.059 248.5 127.953 248.5Z" fill="#185472"/>
<path d="M129.715 223.799L107.74 230.717C106.409 231.137 105.663 232.569 106.075 233.917C106.487 235.264 107.9 236.017 109.231 235.598L131.206 228.68C132.538 228.261 133.283 226.828 132.871 225.481C132.46 224.133 131.047 223.38 129.715 223.799Z" fill="#FFCB6E"/>
<path d="M136.696 226.801C138.144 226.801 139.318 225.609 139.318 224.14C139.318 222.67 138.144 221.478 136.696 221.478C135.248 221.478 134.075 222.67 134.075 224.14C134.075 225.609 135.248 226.801 136.696 226.801Z" fill="#FFCB6E"/>
<path d="M149.473 195.861L137.3 199.694C136.461 199.958 135.992 200.862 136.252 201.713C136.512 202.564 137.403 203.04 138.241 202.776L150.414 198.944C151.253 198.68 151.722 197.776 151.462 196.925C151.202 196.073 150.311 195.597 149.473 195.861Z" fill="#F7B40D"/>
<path d="M147.96 190.921L135.787 194.753C134.949 195.017 134.48 195.921 134.74 196.772C135 197.623 135.89 198.099 136.729 197.835L148.902 194.003C149.74 193.739 150.209 192.835 149.949 191.984C149.689 191.133 148.798 190.657 147.96 190.921Z" fill="#F7B40D"/>
<path d="M200.045 349.878L181.439 355.735C180.152 356.14 179.431 357.525 179.829 358.828C180.227 360.131 181.594 360.859 182.881 360.454L201.486 354.596C202.773 354.191 203.494 352.806 203.096 351.503C202.698 350.2 201.332 349.473 200.045 349.878Z" fill="#F7B40D"/>
<path d="M199.376 342.692L180.676 348.625C179.382 349.035 178.66 350.43 179.063 351.739C179.466 353.049 180.842 353.778 182.135 353.367L200.836 347.435C202.13 347.024 202.852 345.63 202.449 344.321C202.045 343.011 200.67 342.282 199.376 342.692Z" fill="#F7B40D"/>
<path d="M204.474 197.87L95.9121 232.309C86.2569 235.372 80.8757 245.8 83.893 255.602L106.867 330.231C109.884 340.032 120.157 345.495 129.813 342.432L238.375 307.993C248.03 304.93 253.411 294.502 250.394 284.7L227.42 210.071C224.403 200.269 214.129 194.807 204.474 197.87Z" stroke="#141414" stroke-width="2.01157" stroke-miterlimit="10"/>
<path opacity="0.2" d="M599.217 399.137C599.217 407.347 433.675 414 289.662 414C145.648 414 28.9094 407.347 28.9094 399.137C28.9094 390.927 145.648 384.275 289.662 384.275C433.675 384.275 599.217 390.927 599.217 399.137Z" fill="#0E394F"/>
<path d="M548.685 132.415H262.262C260.238 132.418 258.28 133.145 256.732 134.468C255.184 135.791 254.145 137.625 253.798 139.649L220.555 361.344C220.344 362.595 220.405 363.878 220.733 365.103C221.061 366.328 221.648 367.465 222.454 368.436C223.26 369.406 224.265 370.187 225.399 370.722C226.533 371.257 227.769 371.535 229.019 371.535H526.388C528.374 371.522 530.294 370.808 531.82 369.518C533.346 368.227 534.383 366.438 534.754 364.458L569.154 157.569C569.721 154.509 569.617 151.361 568.852 148.346C568.086 145.332 566.676 142.525 564.723 140.125C562.77 137.725 560.321 135.79 557.549 134.458C554.778 133.126 551.751 132.428 548.685 132.415Z" fill="#0E3964"/>
<path d="M548.685 132.415H262.262C260.238 132.418 258.28 133.145 256.732 134.468C255.184 135.791 254.145 137.625 253.798 139.649L220.555 361.344C220.344 362.595 220.405 363.878 220.733 365.103C221.061 366.328 221.648 367.465 222.454 368.436C223.26 369.406 224.265 370.187 225.399 370.722C226.533 371.257 227.769 371.535 229.019 371.535H526.388C528.374 371.522 530.294 370.808 531.82 369.518C533.346 368.227 534.383 366.438 534.754 364.458L569.154 157.569C569.721 154.509 569.617 151.361 568.852 148.346C568.086 145.332 566.676 142.525 564.723 140.125C562.77 137.725 560.321 135.79 557.549 134.458C554.778 133.126 551.751 132.428 548.685 132.415V132.415Z" stroke="#141414" stroke-width="2" stroke-miterlimit="10"/>
<path d="M549.019 132.415H250.284C247.183 132.414 244.182 133.525 241.811 135.554C239.441 137.582 237.853 140.397 237.33 143.499L203 371.535H518.342L556.409 141.461C556.615 140.358 556.578 139.223 556.301 138.136C556.024 137.049 555.515 136.038 554.809 135.174C554.103 134.31 553.218 133.615 552.218 133.138C551.217 132.662 550.125 132.415 549.019 132.415Z" fill="#2C6E9B"/>
<path d="M549.019 132.415H250.284C247.183 132.414 244.182 133.525 241.811 135.554C239.441 137.582 237.853 140.397 237.33 143.499L203 371.535H518.342L556.409 141.461C556.615 140.358 556.578 139.223 556.301 138.136C556.024 137.049 555.515 136.038 554.809 135.174C554.103 134.31 553.218 133.615 552.218 133.138C551.217 132.662 550.125 132.415 549.019 132.415V132.415Z" stroke="#141414" stroke-width="2" stroke-miterlimit="10"/>
<path d="M540.848 149.401H252.361L221.922 354.549H507.452L540.848 149.401Z" fill="#0E394F"/>
<path d="M541.671 149.713L540.095 158.206H251.734L253.17 149.713H541.671Z" fill="#062538"/>
<path d="M260.588 149.401L230.135 354.549H221.768L252.222 149.401H260.588Z" fill="#062538"/>
<path d="M293.385 172.148H277.879L275.899 178.108H292.618L293.385 172.148Z" fill="#4CF58C"/>
<path d="M315.695 172.148H298.795L296.815 178.108H313.534L315.695 172.148Z" fill="#4CF58C"/>
<path d="M335.216 172.148H319.711L319.125 178.108H333.055L335.216 172.148Z" fill="#4CF58C"/>
<path d="M348.463 172.148H342.718L340.738 178.108H347.696L348.463 172.148Z" fill="#4CF58C"/>
<path d="M273.166 172.148H267.421L265.441 178.108L271.827 178.306L273.166 172.148Z" fill="#4CF58C"/>
<path d="M290.596 184.888H275.09L273.11 190.847H289.829L290.596 184.888Z" fill="#4CF58C"/>
<path d="M311.512 184.888H296.006L294.026 190.847H310.745L311.512 184.888Z" fill="#4CF58C"/>
<path d="M332.428 184.888H316.922L316.336 190.847H331.661L332.428 184.888Z" fill="#4CF58C"/>
<path d="M344.28 184.888H338.535L336.555 190.847H343.513L344.28 184.888Z" fill="#4CF58C"/>
<path d="M270.377 184.888H264.632L262.652 190.847H269.387L270.377 184.888Z" fill="#4CF58C"/>
<path d="M67.3529 370.12H385.666V399.845H78.1177C75.6115 399.847 73.1295 399.347 70.8136 398.375C68.4976 397.403 66.3931 395.977 64.6204 394.178C62.8476 392.38 61.4412 390.245 60.4817 387.895C59.5222 385.544 59.0284 383.025 59.0284 380.481V378.57C59.0394 376.332 59.92 374.189 61.4787 372.607C63.0375 371.025 65.1485 370.131 67.3529 370.12Z" fill="#19517F"/>
<path opacity="0.3" d="M385.666 388.521V399.845H78.1037C73.0458 399.841 68.196 397.8 64.6195 394.169C61.043 390.539 59.0321 385.616 59.0284 380.481V378.57C59.0222 377.294 59.3087 376.034 59.865 374.89C61.0813 378.836 63.5057 382.285 66.7858 384.737C70.0658 387.188 74.0306 388.514 78.1037 388.521H385.666Z" fill="#0E3964"/>
<path opacity="0.3" d="M522.33 361.627V370.12H203.251L204.408 361.627H522.33Z" fill="#0E3964"/>
<path d="M155.59 370.12H268.536C268.536 374.249 266.92 378.21 264.044 381.13C261.167 384.05 257.266 385.69 253.198 385.69H170.929C168.914 385.69 166.92 385.287 165.059 384.505C163.198 383.722 161.507 382.575 160.083 381.13C158.659 379.684 157.529 377.967 156.758 376.078C155.987 374.189 155.59 372.164 155.59 370.12Z" fill="#0E3964"/>
<path d="M155.59 370.12H268.536C268.536 374.249 266.92 378.21 264.044 381.13C261.167 384.05 257.266 385.69 253.198 385.69H170.929C168.914 385.69 166.92 385.287 165.059 384.505C163.198 383.722 161.507 382.575 160.083 381.13C158.659 379.684 157.529 377.967 156.758 376.078C155.987 374.189 155.59 372.164 155.59 370.12Z" stroke="#141414" stroke-width="2" stroke-miterlimit="10"/>
<path d="M540.723 149.401L507.327 354.549H221.852L536.804 149.401H540.723Z" fill="#062538"/>
<path d="M552.06 227.304L554.626 210.576C554.835 209.217 553.918 207.943 552.579 207.731C551.239 207.52 549.985 208.45 549.776 209.81L547.21 226.538C547.002 227.897 547.919 229.171 549.258 229.382C550.597 229.594 551.852 228.664 552.06 227.304Z" fill="#062C4C"/>
<path d="M556.887 195.812L559.452 179.084C559.661 177.725 558.744 176.451 557.405 176.239C556.066 176.028 554.811 176.958 554.602 178.318L552.037 195.045C551.828 196.405 552.745 197.679 554.084 197.89C555.423 198.102 556.678 197.171 556.887 195.812Z" fill="#062C4C"/>
<path d="M215.159 375.414H198.482C197.127 375.414 196.028 376.529 196.028 377.905C196.028 379.281 197.127 380.396 198.482 380.396H215.159C216.514 380.396 217.613 379.281 217.613 377.905C217.613 376.529 216.514 375.414 215.159 375.414Z" fill="#141414"/>
<path d="M115.906 370.205H82.008C79.9596 370.205 78.2989 371.89 78.2989 373.97C78.2989 376.049 79.9596 377.735 82.008 377.735H115.906C117.954 377.735 119.615 376.049 119.615 373.97C119.615 371.89 117.954 370.205 115.906 370.205Z" fill="#2C6E9B"/>
<path d="M126.503 377.735C128.552 377.735 130.212 376.049 130.212 373.97C130.212 371.89 128.552 370.205 126.503 370.205C124.455 370.205 122.794 371.89 122.794 373.97C122.794 376.049 124.455 377.735 126.503 377.735Z" fill="#2C6E9B"/>
<path d="M223.676 258.355L218.443 292.353C218.127 294.408 219.511 296.334 221.535 296.655C223.559 296.976 225.456 295.57 225.772 293.516L231.005 259.518C231.321 257.463 229.937 255.537 227.913 255.216C225.889 254.895 223.992 256.301 223.676 258.355Z" fill="#4D9AC4"/>
<path d="M228.963 252.067C231.012 252.067 232.673 250.382 232.673 248.302C232.673 246.223 231.012 244.537 228.963 244.537C226.915 244.537 225.254 246.223 225.254 248.302C225.254 250.382 226.915 252.067 228.963 252.067Z" fill="#4D9AC4"/>
<path d="M292.994 136.648H259.096C257.048 136.648 255.387 138.334 255.387 140.413C255.387 142.493 257.048 144.178 259.096 144.178H292.994C295.043 144.178 296.703 142.493 296.703 140.413C296.703 138.334 295.043 136.648 292.994 136.648Z" fill="#4D9AC4"/>
<path d="M303.592 144.178C305.64 144.178 307.301 142.493 307.301 140.413C307.301 138.334 305.64 136.648 303.592 136.648C301.543 136.648 299.882 138.334 299.882 140.413C299.882 142.493 301.543 144.178 303.592 144.178Z" fill="#4D9AC4"/>
<path d="M371.722 145.056C374.032 145.056 375.905 143.155 375.905 140.809C375.905 138.464 374.032 136.563 371.722 136.563C369.411 136.563 367.539 138.464 367.539 140.809C367.539 143.155 369.411 145.056 371.722 145.056Z" fill="#F95D5D"/>
<path d="M160.777 363.042H128.706V370.12H160.777V363.042Z" fill="#033156"/>
<path d="M112.364 363.042H80.2929V370.12H112.364V363.042Z" fill="#033156"/>
<path d="M209.177 363.042H177.106V370.12H209.177V363.042Z" fill="#033156"/>
<path d="M257.59 363.042H225.519V370.12H257.59V363.042Z" fill="#033156"/>
<path d="M305.99 363.042H273.919V370.12H305.99V363.042Z" fill="#033156"/>
<path d="M354.403 363.042H322.332V370.12H354.403V363.042Z" fill="#033156"/>
<path d="M402.803 363.042H370.732V370.12H402.803V363.042Z" fill="#033156"/>
<path d="M500.006 363.042H467.935V370.12H500.006V363.042Z" fill="#033156"/>
<path d="M451.397 363.254H419.326V370.332H451.397V363.254Z" fill="#033156"/>
<path d="M160.777 363.042H128.706V370.12H160.777V363.042Z" stroke="#141414" stroke-width="2" stroke-miterlimit="10"/>
<path d="M112.364 363.042H80.2929V370.12H112.364V363.042Z" stroke="#141414" stroke-width="2" stroke-miterlimit="10"/>
<path d="M209.177 363.042H177.106V370.12H209.177V363.042Z" stroke="#141414" stroke-width="2" stroke-miterlimit="10"/>
<path d="M257.59 363.042H225.519V370.12H257.59V363.042Z" stroke="#141414" stroke-width="2" stroke-miterlimit="10"/>
<path d="M305.99 363.042H273.919V370.12H305.99V363.042Z" stroke="#141414" stroke-width="2" stroke-miterlimit="10"/>
<path d="M354.403 363.042H322.332V370.12H354.403V363.042Z" stroke="#141414" stroke-width="2" stroke-miterlimit="10"/>
<path d="M402.803 363.042H370.732V370.12H402.803V363.042Z" stroke="#141414" stroke-width="2" stroke-miterlimit="10"/>
<path d="M500.006 363.042H467.935V370.12H500.006V363.042Z" stroke="#141414" stroke-width="2" stroke-miterlimit="10"/>
<path d="M451.397 363.254H419.326V370.332H451.397V363.254Z" stroke="#141414" stroke-width="2" stroke-miterlimit="10"/>
<path d="M540.709 149.401H252.222L221.782 354.549H507.313L540.709 149.401Z" stroke="#141414" stroke-width="2" stroke-miterlimit="10"/>
<path d="M501.177 172.856H381.259C378.41 172.852 375.653 173.887 373.493 175.773C371.333 177.66 369.912 180.272 369.491 183.133L357.847 261.551C357.593 263.27 357.706 265.024 358.181 266.694C358.655 268.365 359.479 269.911 360.597 271.228C361.714 272.545 363.098 273.602 364.655 274.326C366.212 275.05 367.904 275.424 369.616 275.423H488.461C491.283 275.428 494.014 274.414 496.167 272.562C498.321 270.711 499.756 268.143 500.215 265.316L512.988 186.898C513.27 185.163 513.176 183.386 512.711 181.692C512.247 179.998 511.423 178.427 510.298 177.09C509.174 175.753 507.774 174.681 506.199 173.949C504.624 173.218 502.91 172.845 501.177 172.856Z" fill="white"/>
<path d="M512.765 186.912L500.006 265.316C499.544 268.139 498.111 270.704 495.961 272.554C493.811 274.405 491.084 275.421 488.265 275.423H369.435C366.717 275.422 364.08 274.479 361.963 272.749C359.845 271.019 358.374 268.606 357.792 265.911L500.662 172.856H501.038C502.764 172.86 504.469 173.244 506.034 173.982C507.599 174.72 508.987 175.795 510.103 177.132C511.218 178.469 512.034 180.036 512.494 181.725C512.953 183.413 513.046 185.183 512.765 186.912Z" fill="#F4F3F2"/>
<path d="M67.3529 370.12H385.666V399.845H78.1177C75.6115 399.847 73.1295 399.347 70.8136 398.375C68.4976 397.403 66.3931 395.977 64.6204 394.178C62.8476 392.38 61.4412 390.245 60.4817 387.895C59.5222 385.544 59.0284 383.025 59.0284 380.481V378.57C59.0394 376.332 59.92 374.189 61.4787 372.607C63.0375 371.025 65.1485 370.131 67.3529 370.12Z" stroke="#141414" stroke-width="2" stroke-miterlimit="10"/>
<path d="M532.775 370.12H371.025C362.938 370.12 356.383 376.774 356.383 384.982C356.383 393.191 362.938 399.845 371.025 399.845H532.775C540.861 399.845 547.416 393.191 547.416 384.982C547.416 376.774 540.861 370.12 532.775 370.12Z" fill="#0E3964"/>
<path d="M528.229 382.491H511.552C510.196 382.491 509.098 383.606 509.098 384.982C509.098 386.358 510.196 387.474 511.552 387.474H528.229C529.584 387.474 530.683 386.358 530.683 384.982C530.683 383.606 529.584 382.491 528.229 382.491Z" fill="#141414"/>
<path d="M496.827 382.491H480.15C478.795 382.491 477.696 383.606 477.696 384.982C477.696 386.358 478.795 387.474 480.15 387.474H496.827C498.182 387.474 499.281 386.358 499.281 384.982C499.281 383.606 498.182 382.491 496.827 382.491Z" fill="#141414"/>
<path d="M532.775 370.12H371.025C362.938 370.12 356.383 376.774 356.383 384.982C356.383 393.191 362.938 399.845 371.025 399.845H532.775C540.861 399.845 547.416 393.191 547.416 384.982C547.416 376.774 540.861 370.12 532.775 370.12Z" stroke="#141414" stroke-width="2" stroke-miterlimit="10"/>
<path d="M120.089 214.783L121.302 208.513" stroke="white" stroke-linecap="round" stroke-linejoin="round"/>
<path d="M121.693 207.04C122.185 207.04 122.585 206.635 122.585 206.134C122.585 205.634 122.185 205.229 121.693 205.229C121.2 205.229 120.8 205.634 120.8 206.134C120.8 206.635 121.2 207.04 121.693 207.04Z" fill="white"/>
<path d="M179.504 216.001L203.572 208.413C206.328 207.576 209.299 207.874 211.841 209.244C214.383 210.614 216.291 212.944 217.153 215.732L223.009 234.926" stroke="#141414" stroke-width="2" stroke-linecap="round" stroke-linejoin="round"/>
<path d="M153.596 224.14L169.534 219.115" stroke="#141414" stroke-width="2" stroke-linecap="round" stroke-linejoin="round"/>
<path d="M212.063 305.205L128.4 331.547C125.628 332.419 122.628 332.138 120.061 330.766C117.493 329.393 115.567 327.042 114.707 324.229L93.47 254.7C92.6112 251.886 92.8881 248.842 94.2399 246.235C95.5918 243.629 97.9078 241.674 100.679 240.8L145.146 226.801" stroke="#141414" stroke-width="2" stroke-linecap="round" stroke-linejoin="round"/>
<path d="M398.968 239.144H383.463L381.483 245.117H398.201L398.968 239.144Z" fill="#FBD766"/>
<path d="M421.279 239.144H404.378L402.412 245.117H419.117L421.279 239.144Z" fill="#FBD766"/>
<path d="M440.8 239.144H425.294L424.723 245.117H438.639L440.8 239.144Z" fill="#FBD766"/>
<path d="M454.047 239.144H448.302L446.336 245.117H453.28L454.047 239.144Z" fill="#FBD766"/>
<path d="M378.749 239.144H373.005L371.025 245.117L377.411 245.301L378.749 239.144Z" fill="#FBD766"/>
<path d="M396.179 251.883H380.674L378.694 257.857H395.413L396.179 251.883Z" fill="#FBD766"/>
<path d="M417.095 251.883H401.59L399.624 257.857H416.328L417.095 251.883Z" fill="#FBD766"/>
<path d="M438.011 251.883H422.506L421.934 257.857H437.244L438.011 251.883Z" fill="#FBD766"/>
<path d="M449.864 251.883H444.119L442.153 257.857H449.097L449.864 251.883Z" fill="#FBD766"/>
<path d="M375.961 251.883H370.216L368.236 257.857H374.971L375.961 251.883Z" fill="#FBD766"/>
<path d="M501.177 172.856H381.259C378.41 172.852 375.653 173.887 373.493 175.773C371.333 177.66 369.912 180.272 369.491 183.133L357.847 261.551C357.593 263.27 357.706 265.024 358.181 266.694C358.655 268.365 359.479 269.911 360.597 271.228C361.714 272.545 363.098 273.602 364.655 274.326C366.212 275.05 367.904 275.424 369.616 275.423H488.461C491.282 275.428 494.014 274.414 496.167 272.562C498.321 270.711 499.756 268.143 500.215 265.316L512.988 186.898C513.27 185.163 513.176 183.386 512.711 181.692C512.247 179.998 511.423 178.427 510.298 177.09C509.174 175.753 507.774 174.681 506.199 173.949C504.624 173.218 502.91 172.845 501.177 172.856V172.856Z" stroke="#141414" stroke-width="1.3" stroke-miterlimit="10"/>
</g>
<defs>
<clipPath id="clip0_310_30">
<rect width="615" height="597" fill="white"/>
</clipPath>
<clipPath id="clip1_310_30">
<rect width="551" height="283" fill="white" transform="translate(46 131)"/>
</clipPath>
</defs>
</svg>
